<svg width="512" height="512" viewBox="0 0 512 512" xmlns="http://www.w3.org/2000/svg">
  <defs>
    <radialGradient id="maskGradient" cx="50%" cy="45%" r="75%" fx="40%" fy="30%">
      <stop offset="0%" stop-color="#a855f7" />
      <stop offset="45%" stop-color="#6366f1" />
      <stop offset="100%" stop-color="#1f2937" />
    </radialGradient>
    <filter id="maskShadow" x="-12%" y="-12%" width="124%" height="124%">
      <feDropShadow dx="0" dy="16" stdDeviation="18" flood-color="rgba(15,15,35,0.45)" />
    </filter>
  </defs>
  <rect x="8" y="8" width="496" height="496" rx="140" ry="140" fill="url(#maskGradient)" filter="url(#maskShadow)" />
  <g fill="white" opacity="0.92" transform="translate(96 116)">
    <path d="M160 0c88.365 0 160 71.635 160 160s-71.635 160-160 160S0 248.365 0 160 71.635 0 160 0zm0 54c-58.45 0-106 47.55-106 106s47.55 106 106 106 106-47.55 106-106S218.45 54 160 54z" />
    <path d="M160 86c40.869 0 74 33.13 74 74s-33.131 74-74 74-74-33.13-74-74 33.131-74 74-74zm0 32c-23.234 0-42 18.766-42 42s18.766 42 42 42 42-18.766 42-42-18.766-42-42-42z" opacity="0.92" />
    <path d="M247 134h64c9.941 0 18 8.059 18 18s-8.059 18-18 18h-64c-9.941 0-18-8.059-18-18s8.059-18 18-18z" opacity="0.75" />
    <path d="M87 223.5l39.5-39.5c6.248-6.248 6.248-16.379 0-22.627-6.247-6.249-16.379-6.249-22.627 0L64.373 200.373c-6.248 6.248-6.248 16.379 0 22.627 6.247 6.249 16.379 6.249 22.627 0z" opacity="0.9" />
  </g>
</svg>
