<svg width="512" height="512" viewBox="0 0 512 512" xmlns="http://www.w3.org/2000/svg">
  <rect width="512" height="512" rx="144" ry="144" fill="#111827" />
  <g fill="#ffffff" transform="translate(96 116)">
    <path d="M160 0c88.365 0 160 71.635 160 160s-71.635 160-160 160S0 248.365 0 160 71.635 0 160 0zm0 54c-58.45 0-106 47.55-106 106s47.55 106 106 106 106-47.55 106-106S218.45 54 160 54z" />
    <path d="M244 134h72c11.046 0 20 8.954 20 20s-8.954 20-20 20h-72c-11.046 0-20-8.954-20-20s8.954-20 20-20z" />
    <path d="M110.627 161.373c6.248-6.248 6.248-16.379 0-22.627-6.247-6.249-16.379-6.249-22.627 0L64.373 162.373c-6.248 6.248-6.248 16.379 0 22.627 6.247 6.249 16.379 6.249 22.627 0l23.627-23.627z" />
  </g>
</svg>
